<svg width="36" height="36" viewBox="0 0 36 36" fill="none" xmlns="http://www.w3.org/2000/svg">
<rect width="36" height="36" rx="8" fill="#2F3237"/>
<path d="M18 9C16.6868 9 15.3864 9.25866 14.1732 9.7612C12.9599 10.2638 11.8575 11.0003 10.9289 11.9289C9.05357 13.8043 8 16.3478 8 19C8 23.42 10.87 27.17 14.84 28.5C15.34 28.58 15.5 28.27 15.5 28V26.31C12.73 26.91 12.14 24.97 12.14 24.97C11.68 23.81 11.03 23.5 11.03 23.5C10.12 22.88 11.1 22.9 11.1 22.9C12.1 22.97 12.63 23.93 12.63 23.93C13.5 25.45 14.97 25 15.54 24.76C15.63 24.11 15.89 23.67 16.17 23.42C13.95 23.17 11.62 22.31 11.62 18.5C11.62 17.39 12 16.5 12.65 15.79C12.55 15.54 12.2 14.5 12.75 13.15C12.75 13.15 13.59 12.88 15.5 14.17C16.29 13.95 17.15 13.84 18 13.84C18.85 13.84 19.71 13.95 20.5 14.17C22.41 12.88 23.25 13.15 23.25 13.15C23.8 14.5 23.45 15.54 23.35 15.79C24 16.5 24.38 17.39 24.38 18.5C24.38 22.32 22.04 23.16 19.81 23.41C20.17 23.72 20.5 24.33 20.5 25.26V28C20.5 28.27 20.66 28.59 21.17 28.5C25.14 27.16 28 23.42 28 19C28 17.6868 27.7413 16.3864 27.2388 15.1732C26.7362 13.9599 25.9997 12.8575 25.0711 11.9289C24.1425 11.0003 23.0401 10.2638 21.8268 9.7612C20.6136 9.25866 19.3132 9 18 9Z" fill="white"/>
</svg>
