<svg width="60" height="60" viewBox="0 0 60 60" fill="none" xmlns="http://www.w3.org/2000/svg">
<rect width="60" height="60" rx="8" fill="#F93964"/>
<path d="M30 32.9325C31.3807 32.9325 32.5 31.8132 32.5 30.4325C32.5 29.0518 31.3807 27.9325 30 27.9325C28.6193 27.9325 27.5 29.0518 27.5 30.4325C27.5 31.8132 28.6193 32.9325 30 32.9325Z" fill="white"/>
<path d="M30.5 37.9884C26.3147 38.0902 22.1398 37.5229 18.1314 36.3078C16.2798 35.7176 14.5528 34.7879 13.0378 33.5656C12.4596 33.1481 11.9782 32.6097 11.6264 31.9875C11.2747 31.3652 11.061 30.6738 11 29.9607C11 27.6457 13.5294 25.3769 17.7665 23.8924C21.882 22.577 26.182 21.9395 30.5 22.0045C34.7603 21.9447 39.0028 22.5707 43.0664 23.8588C44.8496 24.4304 46.518 25.3152 47.9943 26.4721C48.5625 26.8702 49.0368 27.389 49.3834 27.9919C49.73 28.5948 49.9405 29.2669 50 29.9607C50 32.3668 47.1725 34.8051 42.6179 36.3204C38.6871 37.4959 34.6003 38.0585 30.5 37.9884V37.9884ZM30.5 23.6795C26.3689 23.624 22.2554 24.2301 18.3139 25.4749C14.4139 26.8432 12.6659 28.7143 12.6659 29.9565C12.6659 31.2562 14.5448 33.2995 18.6705 34.7182C22.5051 35.8748 26.4978 36.4132 30.5 36.3134C34.4229 36.3839 38.3333 35.8502 42.0955 34.7308C46.3786 33.3037 48.3286 31.2576 48.3286 29.9607C48.2583 29.5157 48.097 29.0901 47.8549 28.711C47.6127 28.3318 47.295 28.0072 46.9218 27.7578C45.601 26.7314 44.1106 25.9473 42.519 25.4413C38.6315 24.2142 34.5741 23.6194 30.5 23.6795V23.6795Z" fill="white"/>
<path d="M23.0741 47.999C22.4217 48.0141 21.7771 47.855 21.2058 47.538C19.2033 46.3771 18.5097 43.0292 19.3501 38.5808C20.2768 34.3236 21.8824 30.2452 24.1047 26.5033C26.1894 22.7494 28.8582 19.3548 32.01 16.4484C33.3988 15.176 35.001 14.161 36.7422 13.4504C37.372 13.1538 38.059 13 38.7545 13C39.45 13 40.137 13.1538 40.7668 13.4504C42.8491 14.6563 43.5385 18.35 42.5666 23.0907C41.6113 27.1169 40.0474 30.972 37.9295 34.5217C35.9182 38.2313 33.3334 41.5963 30.2717 44.4909C28.8325 45.8132 27.1621 46.8563 25.3451 47.5675C24.6177 47.8389 23.8499 47.9848 23.0741 47.999V47.999ZM25.5535 27.3382C23.4336 30.9212 21.8948 34.8206 20.9946 38.89C20.2213 42.987 20.9639 45.4509 22.0435 46.0777C23.1622 46.7285 25.8779 46.1114 29.1754 43.2161C32.0981 40.443 34.5652 37.2219 36.4849 33.6728C38.5139 30.2792 40.0141 26.5935 40.9332 22.7436C41.8478 18.2811 41.0577 15.5488 39.9362 14.8995C39.5158 14.7376 39.0666 14.6652 38.617 14.6867C38.1674 14.7082 37.7271 14.8233 37.3239 15.0246C35.774 15.6674 34.3491 16.5799 33.1147 17.7203C30.1035 20.5043 27.5542 23.7541 25.5633 27.3466L25.5535 27.3382Z" fill="white"/>
<path d="M38.898 47.999C37.0065 47.999 34.6041 46.8455 32.1025 44.6778C28.9012 41.7423 26.1921 38.3044 24.0801 34.4973C21.8895 30.8037 20.2994 26.7808 19.3702 22.5809C18.9672 20.7332 18.8925 18.8281 19.1496 16.954C19.2091 16.2588 19.4191 15.5852 19.765 14.9808C20.1109 14.3763 20.5841 13.8556 21.1514 13.4555C23.2272 12.2443 26.7491 13.4893 30.3437 16.705C33.3318 19.5497 35.8693 22.8393 37.8678 26.4593C40.057 30.0666 41.6638 34.0015 42.6279 38.1168C43.0483 40.0323 43.1131 42.0097 42.8192 43.9491C42.7492 44.6643 42.5266 45.3558 42.1667 45.9761C41.8067 46.5965 41.3178 47.1311 40.7336 47.5433C40.1727 47.8566 39.5391 48.0139 38.898 47.999V47.999ZM25.5249 33.6504C27.551 37.2888 30.1389 40.5791 33.1914 43.3976C36.3308 46.1197 38.8212 46.7049 39.8919 46.0704C41.0086 45.4163 41.8322 42.7463 40.9835 38.4263C40.0536 34.4972 38.5125 30.7412 36.4174 27.2977C34.5103 23.8331 32.0882 20.6831 29.2353 17.957C25.8515 14.9298 23.1071 14.2531 21.989 14.9058C21.6405 15.1912 21.3545 15.5464 21.149 15.9488C20.9436 16.3512 20.8232 16.7921 20.7954 17.2438C20.5735 18.9151 20.6458 20.6128 21.009 22.2588C21.9028 26.2752 23.4278 30.1218 25.5263 33.6533L25.5249 33.6504Z" fill="white"/>
</svg>
