<svg width="36" height="36" viewBox="0 0 36 36" fill="none" xmlns="http://www.w3.org/2000/svg">
<rect width="36" height="36" rx="8" fill="#2F3237"/>
<path d="M29.92 13C29.15 13.35 28.32 13.58 27.46 13.69C28.34 13.16 29.02 12.32 29.34 11.31C28.51 11.81 27.59 12.16 26.62 12.36C25.83 11.5 24.72 11 23.46 11C21.11 11 19.19 12.92 19.19 15.29C19.19 15.63 19.23 15.96 19.3 16.27C15.74 16.09 12.57 14.38 10.46 11.79C10.09 12.42 9.88 13.16 9.88 13.94C9.88 15.43 10.63 16.75 11.79 17.5C11.08 17.5 10.42 17.3 9.84 17V17.03C9.84 19.11 11.32 20.85 13.28 21.24C12.6507 21.4122 11.9901 21.4362 11.35 21.31C11.6216 22.1625 12.1535 22.9084 12.871 23.4429C13.5885 23.9775 14.4554 24.2737 15.35 24.29C13.8336 25.4904 11.954 26.1393 10.02 26.13C9.68 26.13 9.34 26.11 9 26.07C10.9 27.29 13.16 28 15.58 28C23.46 28 27.79 21.46 27.79 15.79C27.79 15.6 27.79 15.42 27.78 15.23C28.62 14.63 29.34 13.87 29.92 13Z" fill="white"/>
</svg>
