<svg width="39" height="39" viewBox="0 0 39 39" fill="none" xmlns="http://www.w3.org/2000/svg">
<path d="M25.6106 5.31V38M13.3406 33.69V1.1M13.3006 1L1.74059 4.95C1.52242 5.0086 1.33053 5.13934 1.19616 5.32092C1.06179 5.50251 0.992853 5.72424 1.00059 5.95V36.95C1.00059 37.2152 1.10594 37.4696 1.29348 37.6571C1.48102 37.8446 1.73537 37.95 2.00059 37.95H2.33059L13.3306 33.69L25.6306 38L37.1906 34C37.4087 33.9414 37.6006 33.8107 37.735 33.6291C37.8694 33.4475 37.9383 33.2258 37.9306 33V2C37.9306 1.73478 37.8252 1.48043 37.6377 1.29289C37.4502 1.10536 37.1958 1 36.9306 1L36.6006 1.07L25.6006 5.26L13.3006 1Z" stroke="#F93964" stroke-linecap="round" stroke-linejoin="round"/>
</svg>
