<svg width="60" height="60" viewBox="0 0 60 60" fill="none" xmlns="http://www.w3.org/2000/svg">
<rect width="60" height="60" rx="8" fill="#F93964"/>
<path d="M41.3779 28.2152C42.7845 27.1839 43.8322 25.7289 44.3708 24.0587C44.9094 22.3885 44.9113 20.5888 44.3762 18.9174C43.8411 17.2461 42.7964 15.7888 41.3919 14.7545C39.9874 13.7201 38.2951 13.1618 36.5574 13.1594H23.2326C21.4949 13.1618 19.8026 13.7201 18.3981 14.7545C16.9936 15.7888 15.9489 17.2461 15.4138 18.9174C14.8787 20.5888 14.8806 22.3885 15.4192 24.0587C15.9578 25.7289 17.0055 27.1839 18.4121 28.2152C17.3561 28.9842 16.4959 29.9959 15.9027 31.167C15.3094 32.3381 15 33.635 15 34.9508C15 36.2665 15.3094 37.5634 15.9027 38.7345C16.4959 39.9056 17.3561 40.9174 18.4121 41.6863C17.2698 42.5209 16.3586 43.638 15.7658 44.9307C15.1731 46.2234 14.9186 47.6484 15.0269 49.0691C15.1351 50.4897 15.6024 51.8585 16.384 53.0442C17.1656 54.2299 18.2352 55.1928 19.4905 55.8406C20.7458 56.4885 22.1446 56.7996 23.5529 56.7441C24.9613 56.6887 26.3319 56.2685 27.5335 55.5239C28.7351 54.7793 29.7275 53.7352 30.4155 52.4916C31.1035 51.248 31.464 49.8467 31.4626 48.4218V41.4684C32.3169 42.1971 33.309 42.7422 34.3785 43.0706C35.448 43.3989 36.5724 43.5036 37.6832 43.3782C38.794 43.2528 39.8679 42.9 40.8394 42.3413C41.8109 41.7826 42.6597 41.0296 43.3339 40.1284C44.0082 39.2272 44.4938 38.1965 44.7611 37.0994C45.0285 36.0022 45.0719 34.8615 44.8889 33.7467C44.7059 32.632 44.3002 31.5667 43.6965 30.6157C43.0929 29.6646 42.304 28.8479 41.3779 28.2152ZM41.6522 21.4797C41.647 22.8442 41.1086 24.1512 40.1543 25.116C39.1999 26.0809 37.907 26.6252 36.5574 26.6304H31.4626V16.329H36.5574C37.907 16.3342 39.1999 16.8786 40.1543 17.8434C41.1086 18.8082 41.647 20.1153 41.6522 21.4797ZM18.1378 21.4797C18.143 20.1153 18.6814 18.8082 19.6357 17.8434C20.5901 16.8786 21.883 16.3342 23.2326 16.329H28.3274V26.6304H23.2326C21.883 26.6252 20.5901 26.0809 19.6357 25.116C18.6814 24.1512 18.143 22.8442 18.1378 21.4797ZM18.1378 34.9508C18.143 33.5863 18.6814 32.2793 19.6357 31.3144C20.5901 30.3496 21.883 29.8053 23.2326 29.8001H28.3274V40.1015H23.2326C21.883 40.0963 20.5901 39.5519 19.6357 38.5871C18.6814 37.6223 18.143 36.3152 18.1378 34.9508ZM23.2326 53.5725C21.8814 53.5725 20.5855 53.0299 19.63 52.0639C18.6746 51.098 18.1378 49.7879 18.1378 48.4218C18.1378 47.0558 18.6746 45.7457 19.63 44.7797C20.5855 43.8138 21.8814 43.2711 23.2326 43.2711H28.3274V48.4218C28.3222 49.7863 27.7838 51.0933 26.8294 52.0582C25.8751 53.023 24.5822 53.5673 23.2326 53.5725ZM36.5574 40.1015C35.2062 40.1015 33.9103 39.5588 32.9549 38.5929C31.9994 37.6269 31.4626 36.3168 31.4626 34.9508C31.4626 33.5847 31.9994 32.2746 32.9549 31.3087C33.9103 30.3427 35.2062 29.8001 36.5574 29.8001C37.9086 29.8001 39.2045 30.3427 40.16 31.3087C41.1154 32.2746 41.6522 33.5847 41.6522 34.9508C41.6522 36.3168 41.1154 37.6269 40.16 38.5929C39.2045 39.5588 37.9086 40.1015 36.5574 40.1015Z" fill="white"/>
</svg>
