<svg width="60" height="60" viewBox="0 0 60 60" fill="none" xmlns="http://www.w3.org/2000/svg">
<rect width="60" height="60" rx="8" fill="#F93964"/>
<path d="M17.7143 36.3929V35.2143H15.3571V36.3929C15.3571 38.5809 16.2263 40.6793 17.7735 42.2265C19.3207 43.7737 21.4191 44.6429 23.6071 44.6429H27.1429V42.2857H23.6071C22.0443 42.2857 20.5454 41.6649 19.4403 40.5597C18.3351 39.4546 17.7143 37.9557 17.7143 36.3929ZM38.9286 24.6071V25.7857H41.2857V24.6071C41.2857 22.4191 40.4165 20.3207 38.8693 18.7735C37.3222 17.2263 35.2238 16.3571 33.0357 16.3571H29.5V18.7143H33.0357C33.8096 18.7143 34.5759 18.8667 35.2908 19.1629C36.0058 19.459 36.6554 19.8931 37.2026 20.4403C37.7498 20.9875 38.1839 21.6371 38.48 22.352C38.7761 23.067 38.9286 23.8333 38.9286 24.6071ZM23.6071 24.6071H16.5357C15.598 24.6071 14.6987 24.9797 14.0356 25.6427C13.3725 26.3058 13 27.2051 13 28.1429V30.5H15.3571V28.1429C15.3571 27.8303 15.4813 27.5305 15.7023 27.3095C15.9234 27.0885 16.2231 26.9643 16.5357 26.9643H23.6071C23.9197 26.9643 24.2195 27.0885 24.4405 27.3095C24.6615 27.5305 24.7857 27.8303 24.7857 28.1429V30.5H27.1429V28.1429C27.1429 27.2051 26.7703 26.3058 26.1073 25.6427C25.4442 24.9797 24.5449 24.6071 23.6071 24.6071ZM20.0714 23.4286C21.0038 23.4286 21.9153 23.1521 22.6905 22.6341C23.4658 22.1161 24.07 21.3798 24.4269 20.5184C24.7837 19.6569 24.877 18.7091 24.6951 17.7946C24.5132 16.8801 24.0642 16.0401 23.4049 15.3808C22.7456 14.7215 21.9056 14.2725 20.9911 14.0906C20.0767 13.9087 19.1288 14.002 18.2673 14.3589C17.4059 14.7157 16.6697 15.3199 16.1516 16.0952C15.6336 16.8704 15.3571 17.7819 15.3571 18.7143C15.3571 19.9646 15.8538 21.1637 16.7379 22.0478C17.622 22.9319 18.8211 23.4286 20.0714 23.4286ZM20.0714 16.3571C20.5376 16.3571 20.9934 16.4954 21.381 16.7544C21.7686 17.0134 22.0707 17.3815 22.2491 17.8122C22.4276 18.243 22.4742 18.7169 22.3833 19.1741C22.2923 19.6314 22.0678 20.0514 21.7382 20.381C21.4085 20.7107 20.9885 20.9352 20.5313 21.0261C20.074 21.1171 19.6001 21.0704 19.1694 20.892C18.7387 20.7136 18.3705 20.4115 18.1115 20.0238C17.8525 19.6362 17.7143 19.1805 17.7143 18.7143C17.7143 18.0891 17.9626 17.4896 18.4047 17.0475C18.8467 16.6055 19.4463 16.3571 20.0714 16.3571ZM42.4643 41.1071H35.3929C34.4551 41.1071 33.5558 41.4797 32.8927 42.1427C32.2297 42.8058 31.8571 43.7051 31.8571 44.6429V47H34.2143V44.6429C34.2143 44.3303 34.3385 44.0305 34.5595 43.8095C34.7805 43.5885 35.0803 43.4643 35.3929 43.4643H42.4643C42.7769 43.4643 43.0766 43.5885 43.2977 43.8095C43.5187 44.0305 43.6429 44.3303 43.6429 44.6429V47H46V44.6429C46 43.7051 45.6275 42.8058 44.9644 42.1427C44.3013 41.4797 43.402 41.1071 42.4643 41.1071ZM34.2143 35.2143C34.2143 36.1467 34.4908 37.0581 35.0088 37.8334C35.5268 38.6087 36.2631 39.2129 37.1245 39.5697C37.9859 39.9265 38.9338 40.0199 39.8483 39.838C40.7628 39.6561 41.6028 39.2071 42.2621 38.5478C42.9214 37.8885 43.3704 37.0485 43.5523 36.134C43.7342 35.2195 43.6408 34.2716 43.284 33.4102C42.9272 32.5488 42.3229 31.8125 41.5477 31.2945C40.7724 30.7765 39.861 30.5 38.9286 30.5C37.6783 30.5 36.4792 30.9967 35.5951 31.8808C34.711 32.7649 34.2143 33.964 34.2143 35.2143ZM41.2857 35.2143C41.2857 35.6805 41.1475 36.1362 40.8885 36.5238C40.6295 36.9115 40.2613 37.2136 39.8306 37.392C39.3999 37.5704 38.926 37.6171 38.4687 37.5261C38.0115 37.4352 37.5915 37.2107 37.2618 36.881C36.9322 36.5514 36.7077 36.1314 36.6167 35.6741C36.5258 35.2169 36.5724 34.743 36.7509 34.3122C36.9293 33.8815 37.2314 33.5134 37.619 33.2544C38.0066 32.9954 38.4624 32.8571 38.9286 32.8571C39.5537 32.8571 40.1533 33.1055 40.5953 33.5475C41.0374 33.9896 41.2857 34.5891 41.2857 35.2143Z" fill="white"/>
</svg>
