<svg width="45" height="36" viewBox="0 0 45 36" fill="none" xmlns="http://www.w3.org/2000/svg">
<path d="M40.5906 3.07766C43.1639 5.8939 44.5455 9.05252 44.5455 14.1727C44.5455 23.1826 38.407 31.2581 29.4804 35.2508L27.2494 31.7035C35.5814 27.0595 37.2103 21.0331 37.8599 17.2335C36.5183 17.9492 34.7619 18.1989 33.0406 18.0341C28.5336 17.6042 24.9809 13.7917 24.9809 9.05252C24.9809 6.66294 25.9022 4.37123 27.542 2.68155C29.1819 0.99186 31.406 0.0426025 33.7251 0.0426025C36.4059 0.0426025 38.9692 1.30399 40.5906 3.07766ZM15.6071 3.07766C18.1804 5.8939 19.562 9.05252 19.562 14.1727C19.562 23.1826 13.4236 31.2581 4.49702 35.2508L2.266 31.7035C10.598 27.0595 12.2269 21.0331 12.8765 17.2335C11.5349 17.9492 9.77851 18.1989 8.05716 18.0341C3.55014 17.6042 0 13.7917 0 9.05252C0 6.66294 0.921261 4.37123 2.56112 2.68155C4.20097 0.99186 6.42509 0.0426025 8.7442 0.0426025C11.4249 0.0426025 13.9882 1.30399 15.6096 3.07766H15.6071Z" fill="#F93964"/>
</svg>
