<svg width="35" height="35" viewBox="0 0 35 35" fill="none" xmlns="http://www.w3.org/2000/svg">
<path d="M7.99415 2.90565C7.86502 2.73953 7.70202 2.60279 7.51597 2.50451C7.32993 2.40623 7.1251 2.34867 6.9151 2.33563C6.7051 2.3226 6.49473 2.35439 6.29796 2.42891C6.10119 2.50343 5.92253 2.61896 5.77384 2.76783L3.51197 5.0319C2.4554 6.09064 2.06603 7.58908 2.52759 8.90377C4.44327 14.3454 7.55949 19.2859 11.6451 23.3588C15.7181 27.4443 20.6585 30.5605 26.1001 32.4763C27.4148 32.9378 28.9132 32.5485 29.972 31.4919L32.2338 29.23C32.3827 29.0813 32.4982 28.9027 32.5728 28.7059C32.6473 28.5091 32.6791 28.2988 32.666 28.0888C32.653 27.8788 32.5954 27.6739 32.4972 27.4879C32.3989 27.3018 32.2621 27.1388 32.096 27.0097L27.0495 23.0853C26.872 22.9477 26.6656 22.8521 26.4458 22.8059C26.226 22.7597 25.9986 22.764 25.7807 22.8185L20.9901 24.015C20.3506 24.1748 19.6807 24.1664 19.0455 23.9904C18.4103 23.8145 17.8315 23.477 17.3654 23.011L11.9929 17.6363C11.5265 17.1704 11.1886 16.5917 11.0123 15.9565C10.8359 15.3213 10.8271 14.6512 10.9867 14.0116L12.1854 9.22096C12.2399 9.00307 12.2442 8.77566 12.1979 8.55588C12.1517 8.33609 12.0562 8.12968 11.9185 7.95221L7.99415 2.90565ZM4.12228 1.11846C4.50508 0.735535 4.96497 0.43843 5.4714 0.246873C5.97783 0.0553155 6.51922 -0.0263118 7.05961 0.00741133C7.60001 0.0411345 8.12705 0.189436 8.60574 0.442469C9.08443 0.695502 9.50381 1.04748 9.83603 1.47502L13.7604 6.5194C14.4801 7.44471 14.7338 8.65002 14.4495 9.78752L13.2529 14.5781C13.191 14.8263 13.1944 15.0862 13.2626 15.3326C13.3308 15.5791 13.4616 15.8037 13.6423 15.9847L19.017 21.3594C19.1982 21.5404 19.4232 21.6714 19.67 21.7397C19.9169 21.8079 20.1773 21.811 20.4257 21.7488L25.2142 20.5522C25.7755 20.4119 26.3614 20.401 26.9276 20.5203C27.4938 20.6397 28.0254 20.8862 28.4823 21.2413L33.5267 25.1656C35.3401 26.5766 35.5063 29.2563 33.8832 30.8772L31.6213 33.1391C30.0026 34.7578 27.5832 35.4688 25.3279 34.6747C19.5555 32.6437 14.3144 29.339 9.99353 25.006C5.66072 20.6857 2.35611 15.4454 0.32478 9.67377C-0.467095 7.42065 0.243843 4.99908 1.86259 3.38033L4.12447 1.11846H4.12228Z" fill="#F93964"/>
</svg>
